<?xml version="1.0" encoding="utf-8"?>
<!-- Generator: Adobe Illustrator 17.0.0, SVG Export Plug-In . SVG Version: 6.00 Build 0)  -->
<!DOCTYPE svg PUBLIC "-//W3C//DTD SVG 1.1//EN" "http://www.w3.org/Graphics/SVG/1.1/DTD/svg11.dtd">
<svg version="1.1" id="Layer_1" xmlns="http://www.w3.org/2000/svg" xmlns:xlink="http://www.w3.org/1999/xlink" x="0px" y="0px"
	 width="113.5px" height="132.419px" viewBox="0 0 113.5 132.419" enable-background="new 0 0 113.5 132.419" xml:space="preserve">
<g>
	<polygon fill="#E3D74F" points="0,0 113.5,0 113.5,50.25 8.25,10.5 100.5,26.25 100.5,18.75 	"/>
	<polygon fill="#E3D74F" points="13.75,20.75 113.5,59.75 113.5,100 12.25,100 12.25,29 24.75,37 24.75,88.313 32.5,88.313 32.5,48 
		48.25,48 48.25,88.313 54.5,88.313 54.5,62.5 70.75,62.5 70.75,88.313 77.75,88.313 77.75,77 94.75,77 94.75,88.313 100.75,88.313 
		100.75,76 	"/>
</g>
<g>
	<path fill="#E5D54F" d="M47.378,132.226h-3.144c-0.353,0-0.643-0.082-0.87-0.246c-0.229-0.164-0.387-0.374-0.475-0.63l-1.031-3.048
		H35.21l-1.032,3.048c-0.08,0.224-0.236,0.426-0.468,0.606c-0.232,0.18-0.516,0.27-0.852,0.27H29.69l6.768-17.484h4.152
		L47.378,132.226z M36.146,125.543h4.776l-1.608-4.788c-0.104-0.305-0.226-0.662-0.366-1.074c-0.14-0.412-0.278-0.858-0.414-1.338
		c-0.128,0.488-0.26,0.939-0.396,1.355c-0.136,0.416-0.264,0.776-0.384,1.08L36.146,125.543z"/>
	<path fill="#E5D54F" d="M57.242,114.551c0.776,0,1.46,0.114,2.052,0.342c0.593,0.228,1.093,0.528,1.5,0.9
		c0.408,0.372,0.729,0.802,0.961,1.29c0.231,0.487,0.375,0.987,0.432,1.5l-2.4,0.479c-0.04,0.008-0.074,0.014-0.102,0.018
		c-0.028,0.005-0.059,0.007-0.09,0.007c-0.336,0-0.584-0.176-0.744-0.528c-0.185-0.416-0.398-0.732-0.643-0.948
		s-0.565-0.324-0.966-0.324c-0.28,0-0.523,0.053-0.731,0.156c-0.208,0.104-0.383,0.24-0.522,0.408s-0.246,0.364-0.317,0.588
		c-0.072,0.225-0.108,0.456-0.108,0.696c0,0.208,0.018,0.408,0.054,0.6c0.036,0.192,0.097,0.387,0.181,0.582
		c0.084,0.196,0.199,0.398,0.348,0.606c0.147,0.208,0.338,0.432,0.57,0.672l4.319,4.56c0.216-0.479,0.388-0.979,0.517-1.5
		c0.128-0.52,0.22-1.06,0.275-1.62c0.017-0.224,0.09-0.399,0.223-0.527c0.132-0.128,0.306-0.192,0.521-0.192h2.353
		c0,1.168-0.156,2.258-0.469,3.271c-0.312,1.012-0.756,1.938-1.332,2.777l3.672,3.864h-3.672c-0.184,0-0.348-0.01-0.491-0.03
		c-0.145-0.02-0.278-0.054-0.402-0.102s-0.242-0.116-0.354-0.204c-0.111-0.088-0.231-0.2-0.359-0.336l-0.756-0.792
		c-0.761,0.528-1.591,0.936-2.49,1.224c-0.9,0.288-1.858,0.433-2.874,0.433c-0.696,0-1.378-0.12-2.046-0.36
		s-1.263-0.582-1.782-1.026c-0.521-0.443-0.94-0.981-1.26-1.613c-0.32-0.632-0.48-1.34-0.48-2.124c0-0.528,0.082-1.028,0.246-1.5
		c0.164-0.473,0.395-0.91,0.69-1.314c0.296-0.403,0.649-0.771,1.062-1.104s0.862-0.622,1.351-0.87
		c-0.377-0.584-0.648-1.156-0.816-1.716c-0.168-0.561-0.252-1.104-0.252-1.633c0-0.624,0.114-1.214,0.342-1.77
		c0.229-0.556,0.56-1.044,0.996-1.464c0.436-0.42,0.972-0.754,1.608-1.002C55.689,114.675,56.418,114.551,57.242,114.551z
		 M53.618,126.994c0,0.385,0.059,0.732,0.174,1.044c0.116,0.313,0.282,0.581,0.498,0.805c0.217,0.224,0.475,0.397,0.774,0.521
		s0.634,0.187,1.002,0.187c0.536,0,1.034-0.07,1.494-0.21s0.89-0.338,1.29-0.595l-4.021-4.26c-0.439,0.36-0.752,0.752-0.936,1.176
		C53.71,126.087,53.618,126.53,53.618,126.994z"/>
	<path fill="#E5D54F" d="M83.81,132.226h-4.08v-7.392h-7.104v7.392h-4.079v-17.484h4.079v7.309h7.104v-7.309h4.08V132.226z"/>
</g>
</svg>
